<svg width="74" height="58" viewBox="0 0 74 58" fill="none" xmlns="http://www.w3.org/2000/svg">
<path d="M0 8.28571H74C74 3.71563 70.3128 0 65.7778 0H8.22222C3.68715 0 0 3.71563 0 8.28571ZM0 12.4286V49.7143C0 54.2844 3.68715 58 8.22222 58H65.7778C70.3128 58 74 54.2844 74 49.7143V12.4286H0ZM8.22222 48.329C8.22222 44.5098 11.2927 41.4286 15.0698 41.4286H30.1524C33.9424 41.4286 37 44.5228 37 48.329C37 49.0929 36.3833 49.7143 35.6253 49.7143H9.59687C8.83889 49.7143 8.22222 49.0929 8.22222 48.329ZM22.6111 20.7143C24.7918 20.7143 26.8831 21.5872 28.4251 23.1411C29.9671 24.695 30.8333 26.8025 30.8333 29C30.8333 31.1975 29.9671 33.305 28.4251 34.8589C26.8831 36.4128 24.7918 37.2857 22.6111 37.2857C20.4304 37.2857 18.3391 36.4128 16.7971 34.8589C15.2552 33.305 14.3889 31.1975 14.3889 29C14.3889 26.8025 15.2552 24.695 16.7971 23.1411C18.3391 21.5872 20.4304 20.7143 22.6111 20.7143ZM45.2222 22.7857C45.2222 21.6464 46.1472 20.7143 47.2778 20.7143H63.7222C64.8528 20.7143 65.7778 21.6464 65.7778 22.7857C65.7778 23.925 64.8528 24.8571 63.7222 24.8571H47.2778C46.1472 24.8571 45.2222 23.925 45.2222 22.7857ZM45.2222 31.0714C45.2222 29.9321 46.1472 29 47.2778 29H63.7222C64.8528 29 65.7778 29.9321 65.7778 31.0714C65.7778 32.2107 64.8528 33.1429 63.7222 33.1429H47.2778C46.1472 33.1429 45.2222 32.2107 45.2222 31.0714ZM45.2222 39.3571C45.2222 38.2179 46.1472 37.2857 47.2778 37.2857H63.7222C64.8528 37.2857 65.7778 38.2179 65.7778 39.3571C65.7778 40.4964 64.8528 41.4286 63.7222 41.4286H47.2778C46.1472 41.4286 45.2222 40.4964 45.2222 39.3571Z" fill="#053662"/>
</svg>
