<svg width="64" height="64" viewBox="0 0 64 64" fill="none" xmlns="http://www.w3.org/2000/svg">
<path d="M30.4343 0.31875L2.43426 12.3187C0.684261 13.0687 -0.290739 14.9437 0.096761 16.7937C0.484261 18.6437 2.10926 19.9937 4.00926 19.9937V20.9937C4.00926 22.6562 5.34676 23.9937 7.00926 23.9937H57.0093C58.6718 23.9937 60.0093 22.6562 60.0093 20.9937V19.9937C61.9093 19.9937 63.5468 18.6562 63.9218 16.7937C64.2968 14.9312 63.3218 13.0562 61.5843 12.3187L33.5843 0.31875C32.5843 -0.10625 31.4343 -0.10625 30.4343 0.31875ZM16.0093 27.9937H8.00926V52.5312C7.93426 52.5688 7.85926 52.6188 7.78426 52.6688L1.78426 56.6688C0.321761 57.6438 -0.340739 59.4688 0.171761 61.1562C0.684261 62.8438 2.24676 63.9938 4.00926 63.9938H60.0093C61.7718 63.9938 63.3218 62.8438 63.8343 61.1562C64.3468 59.4688 63.6968 57.6438 62.2218 56.6688L56.2218 52.6688C56.1468 52.6188 56.0718 52.5813 55.9968 52.5312V27.9937H48.0093V51.9938H43.0093V27.9937H35.0093V51.9938H29.0093V27.9937H21.0093V51.9938H16.0093V27.9937ZM32.0093 7.99375C33.0701 7.99375 34.0875 8.41518 34.8377 9.16532C35.5878 9.91547 36.0093 10.9329 36.0093 11.9937C36.0093 13.0546 35.5878 14.072 34.8377 14.8222C34.0875 15.5723 33.0701 15.9937 32.0093 15.9937C30.9484 15.9937 29.931 15.5723 29.1808 14.8222C28.4307 14.072 28.0093 13.0546 28.0093 11.9937C28.0093 10.9329 28.4307 9.91547 29.1808 9.16532C29.931 8.41518 30.9484 7.99375 32.0093 7.99375Z" fill="#053662"/>
</svg>
