<svg width="346" height="346" viewBox="0 0 346 346" fill="none" xmlns="http://www.w3.org/2000/svg">
<circle cx="173" cy="173" r="173" fill="#FDD47B"/>
<path d="M70.9436 206.627C75.1429 217.65 71.4685 224.999 69.6314 227.623C68.3191 230.248 65.6946 231.822 62.8076 232.347C61.4953 232.347 58.6083 232.347 51.7845 221.849C49.6849 218.7 44.9607 211.089 44.1734 204.79C43.386 198.491 36.2998 184.581 33.9377 179.857C33.1503 178.544 33.1503 177.232 33.9377 175.92L42.8611 163.847C44.4358 162.272 46.7979 162.272 48.3726 163.584L48.6351 163.847C50.9972 166.734 59.6581 168.571 65.1697 169.096C66.4819 169.096 67.5317 169.883 68.0566 170.933C68.5816 171.983 68.5816 173.295 68.0566 174.345C57.2961 192.454 69.6314 204.79 70.1563 205.315L70.9436 206.627Z" fill="#FFF8E9"/>
<path d="M163.048 307.664C165.411 310.288 174.334 320.262 173.022 327.61C172.497 330.235 170.922 332.597 168.56 333.647C166.985 334.434 165.411 334.697 163.836 334.697C160.424 334.434 157.275 333.647 154.125 332.334C151.501 331.285 148.876 329.972 146.514 328.398L145.727 327.873L138.115 320.262H133.129C132.341 320.262 131.554 319.999 131.029 319.474L90.3489 288.505C89.0366 287.455 88.5117 285.618 89.0366 284.043L95.8604 269.083C96.6477 267.508 98.4849 266.721 100.06 267.246L113.182 270.658L126.305 273.807C127.092 274.07 127.88 274.595 128.405 275.382L146.514 300.315L157.537 301.89C158.587 302.152 159.374 302.677 159.899 303.465L163.048 307.664Z" fill="#FFF8E9"/>
<path d="M338.645 298.74C338.12 299.789 337.07 300.577 336.02 300.839C304.001 306.876 271.194 310.288 238.65 311.075L230.777 311.337C221.591 311.337 212.142 311.075 202.956 310.025C201.644 310.025 200.594 308.975 200.332 307.926L194.033 294.54L189.834 298.477C188.521 299.527 186.684 299.789 185.372 298.74L168.837 287.717C167.263 286.929 166.738 285.092 167.263 283.517L169.887 275.644L163.851 270.132L147.841 271.182C146.266 271.182 144.954 270.395 144.429 269.082C139.18 259.634 127.107 257.272 126.845 257.272C125.27 257.01 123.958 255.435 123.958 253.86V244.674L120.546 240.737C119.759 239.95 119.496 238.9 119.759 237.85L121.858 223.678C116.347 221.053 110.573 219.479 104.536 219.216C103.487 219.216 102.437 218.691 101.912 217.904C101.124 217.117 100.862 216.067 100.862 215.017L102.437 202.682C97.975 202.682 93.7758 200.845 90.8888 197.433C88.5267 194.546 87.2144 190.871 87.2144 187.197L84.065 184.835C83.2776 184.31 82.7527 183.523 82.4903 182.473C82.2278 181.685 82.4903 180.636 83.0152 179.848L88.0018 173.287L85.6397 170.137C84.3275 168.825 84.5899 166.463 85.9022 165.413C85.9022 165.413 85.9022 165.413 86.1646 165.151L96.6628 156.49L99.2873 134.181C95.3505 129.72 82.7527 124.471 75.1416 122.108C74.3542 121.846 73.8293 121.321 73.3044 120.534L65.9557 109.248C64.9059 107.936 65.1684 106.099 66.2182 105.049L72.5171 97.9627C71.2048 90.8765 69.3676 83.7902 67.268 76.9664C63.5936 64.8936 58.3446 51.5084 45.2219 49.1464C37.8732 47.5716 29.9996 50.4586 25.8003 56.7575C25.013 57.8073 23.7007 58.3322 22.3884 58.3322C21.0762 58.3322 19.7639 57.02 19.5014 55.7077L7.42858 15.5523C6.90367 14.2401 7.42857 12.9278 8.21594 11.878C9.26575 11.0906 10.578 10.8282 11.8903 11.0906C89.3141 35.4988 231.301 38.3858 232.614 38.6482C234.451 38.6482 236.026 40.2229 236.026 42.0601C236.288 42.585 237.338 77.4913 238.65 113.185C239.962 148.616 241.275 184.835 241.537 188.247C242.062 195.071 245.474 196.383 248.623 199.532L250.985 202.157L251.773 202.682L254.135 201.632C254.397 201.107 254.922 200.582 255.71 200.582C257.809 200.057 259.909 200.32 261.746 201.632C267.52 205.306 270.407 217.642 271.194 222.628L292.716 234.439C293.24 234.701 293.765 235.226 294.028 235.751L305.576 255.697C309.25 255.172 315.287 255.697 323.948 261.209C328.409 264.096 329.459 269.607 330.246 275.119C330.509 276.694 330.771 278.268 331.296 279.843C332.871 285.355 335.495 290.341 338.382 295.328C338.907 296.378 339.17 297.69 338.645 298.74Z" fill="#FFF8E9"/>
</svg>
