<svg width="74" height="68" viewBox="0 0 74 68" fill="none" xmlns="http://www.w3.org/2000/svg">
<g id="Group 1199">
<path id="Vector" d="M66.1082 53.1331C68.3688 49.6236 69.6804 45.4451 69.6804 40.9603C69.6804 28.5292 59.6032 18.4517 47.1722 18.4517C34.7413 18.4517 24.6641 28.5292 24.6641 40.9603C24.6641 53.3915 34.7413 63.469 47.1722 63.469C51.262 63.469 55.097 62.3782 58.4022 60.4716L67.0489 64.9473C69.7778 66.3598 72.6135 63.2439 70.9509 60.6598L66.1082 53.1331Z" fill="#A8D0FB" stroke="#255A90" stroke-width="4"/>
<path id="Vector_2" d="M15.4367 44.5506C18.7417 46.4566 22.5763 47.5471 26.6656 47.5471C39.0968 47.5471 49.1743 37.4696 49.1743 25.0385C49.1743 12.6073 39.0968 2.52979 26.6656 2.52979C14.2344 2.52979 4.15692 12.6073 4.15692 25.0385C4.15692 29.5243 5.46914 33.7036 7.73067 37.2135L2.88935 44.738C1.22672 47.322 4.06241 50.4379 6.79127 49.0255L15.4367 44.5506Z" fill="#D8EAFD" stroke="#255A90" stroke-width="4"/>
</g>
</svg>
