<svg xmlns="http://www.w3.org/2000/svg" width="48" height="48" viewBox="0 0 48 48" fill="none">
    <path d="M13.9387 13.9368C14.0781 13.7971 14.2436 13.6863 14.4258 13.6106C14.6081 13.535 14.8034 13.4961 15.0007 13.4961C15.198 13.4961 15.3934 13.535 15.5756 13.6106C15.7579 13.6863 15.9234 13.7971 16.0627 13.9368L24.0007 21.8778L31.9387 13.9368C32.0782 13.7973 32.2438 13.6867 32.426 13.6112C32.6082 13.5357 32.8035 13.4969 33.0007 13.4969C33.198 13.4969 33.3933 13.5357 33.5755 13.6112C33.7577 13.6867 33.9233 13.7973 34.0627 13.9368C34.2022 14.0762 34.3128 14.2418 34.3883 14.424C34.4638 14.6062 34.5026 14.8015 34.5026 14.9988C34.5026 15.196 34.4638 15.3913 34.3883 15.5735C34.3128 15.7557 34.2022 15.9213 34.0627 16.0608L26.1217 23.9988L34.0627 31.9368C34.2022 32.0762 34.3128 32.2418 34.3883 32.424C34.4638 32.6062 34.5026 32.8015 34.5026 32.9988C34.5026 33.196 34.4638 33.3913 34.3883 33.5735C34.3128 33.7557 34.2022 33.9213 34.0627 34.0608C33.9233 34.2002 33.7577 34.3109 33.5755 34.3863C33.3933 34.4618 33.198 34.5007 33.0007 34.5007C32.8035 34.5007 32.6082 34.4618 32.426 34.3863C32.2438 34.3109 32.0782 34.2002 31.9387 34.0608L24.0007 26.1198L16.0627 34.0608C15.9233 34.2002 15.7577 34.3109 15.5755 34.3863C15.3933 34.4618 15.198 34.5007 15.0007 34.5007C14.8035 34.5007 14.6082 34.4618 14.426 34.3863C14.2438 34.3109 14.0782 34.2002 13.9387 34.0608C13.7993 33.9213 13.6886 33.7557 13.6132 33.5735C13.5377 33.3913 13.4988 33.196 13.4988 32.9988C13.4988 32.8015 13.5377 32.6062 13.6132 32.424C13.6886 32.2418 13.7993 32.0762 13.9387 31.9368L21.8797 23.9988L13.9387 16.0608C13.799 15.9214 13.6882 15.7559 13.6126 15.5737C13.537 15.3914 13.498 15.1961 13.498 14.9988C13.498 14.8015 13.537 14.6061 13.6126 14.4239C13.6882 14.2416 13.799 14.0761 13.9387 13.9368Z" fill="#2D2D2D"/>
</svg>