<svg width="111" height="67" viewBox="0 0 111 67" fill="none" xmlns="http://www.w3.org/2000/svg">
<g id="Group 1197">
<path id="Vector 82" d="M84.375 53.436C87.6579 51.9487 94.2243 47.3008 94.2266 40.6074" stroke="#91C4FA" stroke-width="4" stroke-linecap="round"/>
<path id="Vector 83" d="M52.0156 37.2007C55.2986 35.7134 61.865 31.0655 61.8672 24.3721" stroke="#91C4FA" stroke-width="4" stroke-linecap="round"/>
<path id="Vector 84" d="M25.2734 53.5444C28.5564 52.0571 35.1228 47.4092 35.125 40.7158" stroke="#91C4FA" stroke-width="4" stroke-linecap="round"/>
<path id="Vector" d="M91.3059 63.9231C100.98 62.9228 108.523 54.7466 108.523 44.8084C108.523 34.1949 99.9195 25.5909 89.3059 25.5909C88.9139 25.5909 88.5245 25.6027 88.1383 25.6258C88.1422 25.4529 88.1442 25.2795 88.1442 25.1056C88.1442 12.6939 78.0826 2.63232 65.6709 2.63232C56.1058 2.63232 47.9364 8.60805 44.6923 17.0299C42.3214 15.8215 39.637 15.1401 36.7935 15.1401C27.323 15.1401 19.6178 22.6981 19.3805 32.1113C19.162 32.1025 18.9424 32.098 18.7218 32.098C9.90513 32.098 2.75781 39.2453 2.75781 48.062C2.75781 56.2013 8.84912 62.9179 16.7218 63.9019V64.026H18.7218H89.3059H91.3059V63.9231Z" stroke="#255A90" stroke-width="4"/>
</g>
</svg>
