<svg width="32" height="32" viewBox="0 0 32 32" fill="none" xmlns="http://www.w3.org/2000/svg">
    <rect width="32" height="32" fill="white" fill-opacity="0.01"/>
    <path d="M16.0039 4C16.2691 4 16.5235 4.10536 16.711 4.29289C16.8986 4.48043 17.0039 4.73478 17.0039 5V15H27.0039C27.2691 15 27.5235 15.1054 27.711 15.2929C27.8986 15.4804 28.0039 15.7348 28.0039 16C28.0039 16.2652 27.8986 16.5196 27.711 16.7071C27.5235 16.8946 27.2691 17 27.0039 17H17.0039V27C17.0039 27.2652 16.8986 27.5196 16.711 27.7071C16.5235 27.8946 16.2691 28 16.0039 28C15.7387 28 15.4843 27.8946 15.2968 27.7071C15.1093 27.5196 15.0039 27.2652 15.0039 27V17H5.00391C4.73869 17 4.48434 16.8946 4.2968 16.7071C4.10926 16.5196 4.00391 16.2652 4.00391 16C4.00391 15.7348 4.10926 15.4804 4.2968 15.2929C4.48434 15.1054 4.73869 15 5.00391 15H15.0039V5C15.0039 4.73478 15.1093 4.48043 15.2968 4.29289C15.4843 4.10536 15.7387 4 16.0039 4Z" fill="currentColor"/>
</svg>
