<svg width="21" height="21" viewBox="0 0 21 21" fill="none" xmlns="http://www.w3.org/2000/svg">
    <path d="M10.0602 6.30862C10.1183 6.25041 10.1873 6.20423 10.2632 6.17273C10.3391 6.14122 10.4205 6.125 10.5027 6.125C10.585 6.125 10.6664 6.14122 10.7423 6.17273C10.8182 6.20423 10.8872 6.25041 10.9452 6.30862L18.4452 13.8086C18.5626 13.926 18.6285 14.0851 18.6285 14.2511C18.6285 14.4171 18.5626 14.5763 18.4452 14.6936C18.3279 14.811 18.1687 14.8769 18.0027 14.8769C17.8368 14.8769 17.6776 14.811 17.5602 14.6936L10.5027 7.63487L3.44524 14.6936C3.32788 14.811 3.16871 14.8769 3.00274 14.8769C2.83677 14.8769 2.6776 14.811 2.56024 14.6936C2.44288 14.5763 2.37695 14.4171 2.37695 14.2511C2.37695 14.0851 2.44288 13.926 2.56024 13.8086L10.0602 6.30862Z" fill="currentColor"/>
</svg>
