<svg width="19" height="16" viewBox="0 0 19 16" fill="none" xmlns="http://www.w3.org/2000/svg">
    <path d="M6.5 9.75C6.5 10.1875 6.8125 10.5 7.25 10.5H12.5V14.5C12.5 15.3438 11.8125 16 11 16H2C1.15625 16 0.5 15.3438 0.5 14.5V1.5C0.5 0.6875 1.15625 0 2 0H7.5V4C7.5 4.5625 7.9375 5 8.5 5H12.5V9H7.25C6.8125 9 6.5 9.34375 6.5 9.75ZM8.5 0L12.5 4H8.5V0ZM18.25 9.21875C18.5625 9.53125 18.5625 10 18.25 10.2812L15.75 12.7812C15.4688 13.0938 15 13.0938 14.7188 12.7812C14.5625 12.6562 14.5 12.4688 14.5 12.25C14.5 12.0625 14.5625 11.875 14.7188 11.75L15.9375 10.5H12.5V9H15.9375L14.6875 7.78125C14.375 7.5 14.375 7.03125 14.6875 6.71875C14.9688 6.4375 15.4375 6.4375 15.75 6.71875L18.25 9.21875Z" fill="currentColor"/>
</svg>
