<svg width="19" height="19" viewBox="0 0 19 19" fill="none" xmlns="http://www.w3.org/2000/svg">
    <path d="M6.6875 9.25C6.6875 7.70312 7.91797 6.4375 9.5 6.4375C11.0469 6.4375 12.3125 7.70312 12.3125 9.25C12.3125 10.832 11.0469 12.0625 9.5 12.0625C7.91797 12.0625 6.6875 10.832 6.6875 9.25ZM9.5 0.25C10.0977 0.25 10.625 0.777344 10.625 1.375V2.60547C13.4375 3.09766 15.6523 5.3125 16.1445 8.125H17.375C17.9727 8.125 18.5 8.65234 18.5 9.25C18.5 9.88281 17.9727 10.375 17.375 10.375H16.1445C15.6523 13.2227 13.4375 15.4375 10.625 15.9297V17.125C10.625 17.7578 10.0977 18.25 9.5 18.25C8.86719 18.25 8.375 17.7578 8.375 17.125V15.9297C5.52734 15.4375 3.3125 13.2227 2.82031 10.375H1.625C0.992188 10.375 0.5 9.88281 0.5 9.25C0.5 8.65234 0.992188 8.125 1.625 8.125H2.82031C3.3125 5.3125 5.52734 3.09766 8.375 2.60547V1.375C8.375 0.777344 8.86719 0.25 9.5 0.25ZM5 9.25C5 11.7461 7.00391 13.75 9.5 13.75C11.9609 13.75 14 11.7461 14 9.25C14 6.78906 11.9609 4.75 9.5 4.75C7.00391 4.75 5 6.78906 5 9.25Z" fill="currentColor"/>
</svg>
