<svg width="18" height="19" viewBox="0 0 18 19" fill="none" xmlns="http://www.w3.org/2000/svg">
    <path d="M6.1875 9.25C6.1875 7.70312 7.41797 6.4375 9 6.4375C10.5469 6.4375 11.8125 7.70312 11.8125 9.25C11.8125 10.832 10.5469 12.0625 9 12.0625C7.41797 12.0625 6.1875 10.832 6.1875 9.25ZM9 0.25C9.59766 0.25 10.125 0.777344 10.125 1.375V2.60547C12.9375 3.09766 15.1523 5.3125 15.6445 8.125H16.875C17.4727 8.125 18 8.65234 18 9.25C18 9.88281 17.4727 10.375 16.875 10.375H15.6445C15.1523 13.2227 12.9375 15.4375 10.125 15.9297V17.125C10.125 17.7578 9.59766 18.25 9 18.25C8.36719 18.25 7.875 17.7578 7.875 17.125V15.9297C5.02734 15.4375 2.8125 13.2227 2.32031 10.375H1.125C0.492188 10.375 0 9.88281 0 9.25C0 8.65234 0.492188 8.125 1.125 8.125H2.32031C2.8125 5.3125 5.02734 3.09766 7.875 2.60547V1.375C7.875 0.777344 8.36719 0.25 9 0.25ZM4.5 9.25C4.5 11.7461 6.50391 13.75 9 13.75C11.4609 13.75 13.5 11.7461 13.5 9.25C13.5 6.78906 11.4609 4.75 9 4.75C6.50391 4.75 4.5 6.78906 4.5 9.25Z" fill="currentColor"/>
</svg>
