<svg width="18" height="19" viewBox="0 0 18 19" fill="none" xmlns="http://www.w3.org/2000/svg">
    <path d="M8.15625 0.460938C8.68359 0.214844 9.28125 0.214844 9.80859 0.460938L17.5078 4.01172C17.7891 4.15234 18 4.43359 18 4.75C18 5.10156 17.7891 5.38281 17.5078 5.52344L9.80859 9.07422C9.28125 9.32031 8.68359 9.32031 8.15625 9.07422L0.457031 5.52344C0.175781 5.38281 0 5.10156 0 4.75C0 4.43359 0.175781 4.15234 0.457031 4.01172L8.15625 0.460938ZM17.5078 8.51172C17.7891 8.65234 18 8.93359 18 9.25C18 9.60156 17.7891 9.88281 17.5078 10.0234L9.80859 13.5742C9.28125 13.8203 8.68359 13.8203 8.15625 13.5742L0.457031 10.0234C0.175781 9.88281 0 9.60156 0 9.25C0 8.93359 0.175781 8.65234 0.457031 8.51172L2.35547 7.63281L7.69922 10.0938C8.50781 10.4805 9.45703 10.4805 10.2656 10.0938L15.6094 7.63281L17.5078 8.51172ZM10.2656 14.5938L15.6094 12.1328L17.5078 13.0117C17.7891 13.1523 18 13.4336 18 13.75C18 14.1016 17.7891 14.3828 17.5078 14.5234L9.80859 18.0742C9.28125 18.3203 8.68359 18.3203 8.15625 18.0742L0.457031 14.5234C0.175781 14.3828 0 14.1016 0 13.75C0 13.4336 0.175781 13.1523 0.457031 13.0117L2.35547 12.1328L7.69922 14.5938C8.50781 14.9805 9.45703 14.9805 10.2656 14.5938Z" fill="currentColor"/>
</svg>
