<svg width="24" height="24" viewBox="0 0 24 24" fill="none" xmlns="http://www.w3.org/2000/svg">
    <path d="M18.0039 0.00195312H6.00391C5.20826 0.00195313 4.44519 0.318024 3.88259 0.880633C3.31998 1.44324 3.00391 2.2063 3.00391 3.00195V21.002C3.00391 21.7976 3.31998 22.5607 3.88259 23.1233C4.44519 23.6859 5.20826 24.002 6.00391 24.002H18.0039C18.7996 24.002 19.5626 23.6859 20.1252 23.1233C20.6878 22.5607 21.0039 21.7976 21.0039 21.002V3.00195C21.0039 2.2063 20.6878 1.44324 20.1252 0.880633C19.5626 0.318024 18.7996 0.00195313 18.0039 0.00195312ZM7.50391 6.00195H16.5039C16.7028 6.00195 16.8936 6.08097 17.0342 6.22162C17.1749 6.36228 17.2539 6.55304 17.2539 6.75195C17.2539 6.95087 17.1749 7.14163 17.0342 7.28228C16.8936 7.42294 16.7028 7.50195 16.5039 7.50195H7.50391C7.30499 7.50195 7.11423 7.42294 6.97358 7.28228C6.83292 7.14163 6.75391 6.95087 6.75391 6.75195C6.75391 6.55304 6.83292 6.36228 6.97358 6.22162C7.11423 6.08097 7.30499 6.00195 7.50391 6.00195ZM6.75391 9.75195C6.75391 9.55304 6.83292 9.36228 6.97358 9.22162C7.11423 9.08097 7.30499 9.00195 7.50391 9.00195H16.5039C16.7028 9.00195 16.8936 9.08097 17.0342 9.22162C17.1749 9.36228 17.2539 9.55304 17.2539 9.75195C17.2539 9.95087 17.1749 10.1416 17.0342 10.2823C16.8936 10.4229 16.7028 10.502 16.5039 10.502H7.50391C7.30499 10.502 7.11423 10.4229 6.97358 10.2823C6.83292 10.1416 6.75391 9.95087 6.75391 9.75195ZM7.50391 12.002H16.5039C16.7028 12.002 16.8936 12.081 17.0342 12.2216C17.1749 12.3623 17.2539 12.553 17.2539 12.752C17.2539 12.9509 17.1749 13.1416 17.0342 13.2823C16.8936 13.4229 16.7028 13.502 16.5039 13.502H7.50391C7.30499 13.502 7.11423 13.4229 6.97358 13.2823C6.83292 13.1416 6.75391 12.9509 6.75391 12.752C6.75391 12.553 6.83292 12.3623 6.97358 12.2216C7.11423 12.081 7.30499 12.002 7.50391 12.002ZM7.50391 15.002H12.0039C12.2028 15.002 12.3936 15.081 12.5342 15.2216C12.6749 15.3623 12.7539 15.553 12.7539 15.752C12.7539 15.9509 12.6749 16.1416 12.5342 16.2823C12.3936 16.4229 12.2028 16.502 12.0039 16.502H7.50391C7.30499 16.502 7.11423 16.4229 6.97358 16.2823C6.83292 16.1416 6.75391 15.9509 6.75391 15.752C6.75391 15.553 6.83292 15.3623 6.97358 15.2216C7.11423 15.081 7.30499 15.002 7.50391 15.002Z" fill="currentColor"/>
</svg>
