<svg width="20" height="17" viewBox="0 0 20 17" fill="none" xmlns="http://www.w3.org/2000/svg">
    <path d="M0.8125 2.0625C0.8125 1.36523 1.38672 0.75 2.125 0.75H17.875C18.5723 0.75 19.1875 1.36523 19.1875 2.0625C19.1875 2.80078 18.5723 3.375 17.875 3.375H2.125C1.38672 3.375 0.8125 2.80078 0.8125 2.0625ZM0.8125 8.625C0.8125 7.92773 1.38672 7.3125 2.125 7.3125H17.875C18.5723 7.3125 19.1875 7.92773 19.1875 8.625C19.1875 9.36328 18.5723 9.9375 17.875 9.9375H2.125C1.38672 9.9375 0.8125 9.36328 0.8125 8.625ZM17.875 16.5H2.125C1.38672 16.5 0.8125 15.9258 0.8125 15.1875C0.8125 14.4902 1.38672 13.875 2.125 13.875H17.875C18.5723 13.875 19.1875 14.4902 19.1875 15.1875C19.1875 15.9258 18.5723 16.5 17.875 16.5Z" fill="currentColor"/>
</svg>
