<svg width="24" height="24" viewBox="0 0 24 24" fill="none" xmlns="http://www.w3.org/2000/svg">
    <path d="M12.0039 24.002C12.0039 24.002 21.0039 15.473 21.0039 9.00195C21.0039 6.615 20.0557 4.32582 18.3679 2.63799C16.68 0.950165 14.3909 0.00195312 12.0039 0.00195312C9.61696 0.00195312 7.32777 0.950165 5.63995 2.63799C3.95212 4.32582 3.00391 6.615 3.00391 9.00195C3.00391 15.473 12.0039 24.002 12.0039 24.002ZM12.0039 13.502C10.8104 13.502 9.66584 13.0278 8.82193 12.1839C7.97801 11.34 7.50391 10.1954 7.50391 9.00195C7.50391 7.80848 7.97801 6.66389 8.82193 5.81997C9.66584 4.97606 10.8104 4.50195 12.0039 4.50195C13.1974 4.50195 14.342 4.97606 15.1859 5.81997C16.0298 6.66389 16.5039 7.80848 16.5039 9.00195C16.5039 10.1954 16.0298 11.34 15.1859 12.1839C14.342 13.0278 13.1974 13.502 12.0039 13.502Z" fill="currentColor"/>
</svg>
