<svg width="14" height="14" viewBox="0 0 14 14" fill="none" xmlns="http://www.w3.org/2000/svg">
    <path d="M12 10C13.0938 10.0312 14 10.9062 14 12C14 13.125 13.0938 14 12 14C11.25 14 10.5938 13.625 10.25 13H3.71875C3.375 13.625 2.71875 14 2 14C0.875 14 0 13.125 0 12C0 11.2812 0.375 10.625 1 10.2812V3.75C0.375 3.40625 0 2.75 0 2C0 0.90625 0.875 0 2 0C2.71875 0 3.375 0.40625 3.71875 1H10.25C10.5938 0.40625 11.25 0 12 0C13.0938 0 14 0.90625 14 2C14 3.125 13.0938 4 12 4L10.7812 6.125C10.9062 6.40625 11 6.6875 11 7C11 7.34375 10.9062 7.625 10.7812 7.90625L12 10ZM3 10.2812C3.28125 10.4688 3.53125 10.7188 3.71875 11H10.25L9.125 9C9.0625 9 9.03125 9 9 9C7.875 9 7 8.125 7 7C7 5.90625 7.875 5 9 5C9.03125 5 9.0625 5 9.125 5.03125L10.25 3.03125V3H3.71875C3.53125 3.3125 3.28125 3.5625 3 3.75V10.2812Z" fill="currentColor"/>
</svg>
