<svg width="9" height="16" viewBox="0 0 9 16" fill="none" xmlns="http://www.w3.org/2000/svg">
    <path d="M9 4.5C9 7 6.96875 9 4.5 9C2 9 0 7 0 4.5C0 2.03125 2 0 4.5 0C6.96875 0 9 2.03125 9 4.5ZM5 2C5 1.75 4.75 1.5 4.5 1.5C2.8125 1.5 1.5 2.84375 1.5 4.5C1.5 4.78125 1.71875 5 2 5C2.25 5 2.5 4.78125 2.5 4.5C2.5 3.40625 3.375 2.5 4.5 2.5C4.75 2.5 5 2.28125 5 2ZM3.5 15V9.9375C3.8125 9.96875 4.15625 10 4.5 10C4.8125 10 5.15625 9.96875 5.5 9.9375V15C5.5 15.5625 5.03125 16 4.5 16C3.9375 16 3.5 15.5625 3.5 15Z" fill="currentColor"/>
</svg>
