<svg width="75" height="66" viewBox="0 0 75 66" fill="none" xmlns="http://www.w3.org/2000/svg">
<path d="M0 8.25C0 3.69961 3.73698 0 8.33333 0H29.1667V16.5C29.1667 18.7816 31.0286 20.625 33.3333 20.625H50V25.6008C40.3776 28.2949 33.3333 37.0477 33.3333 47.4375C33.3333 55.0559 37.1224 61.7848 42.9297 65.9098C42.513 65.9742 42.0964 66 41.6667 66H8.33333C3.73698 66 0 62.3004 0 57.75V8.25ZM50 16.5H33.3333V0L50 16.5ZM37.5 47.4375C37.5 42.5144 39.4754 37.793 42.9917 34.3118C46.5081 30.8307 51.2772 28.875 56.25 28.875C61.2228 28.875 65.9919 30.8307 69.5082 34.3118C73.0246 37.793 75 42.5144 75 47.4375C75 52.3606 73.0246 57.082 69.5082 60.5632C65.9919 64.0443 61.2228 66 56.25 66C51.2772 66 46.5081 64.0443 42.9917 60.5632C39.4754 57.082 37.5 52.3606 37.5 47.4375ZM65.013 41.8559C64.2057 41.0566 62.8776 41.0566 62.0703 41.8559L54.1667 49.6805L50.4297 45.9809C49.6224 45.1816 48.2943 45.1816 47.487 45.9809C46.6797 46.7801 46.6797 48.0949 47.487 48.8941L52.6953 54.0504C53.5026 54.8496 54.8307 54.8496 55.638 54.0504L65.013 44.7691C65.8203 43.9699 65.8203 42.6551 65.013 41.8559Z" fill="#053662"/>
</svg>
