<svg xmlns="http://www.w3.org/2000/svg" width="48" height="48" viewBox="0 0 48 48" fill="none">
    <path d="M27.879 0.00390625H12C10.4087 0.00390625 8.88258 0.636047 7.75736 1.76127C6.63214 2.88648 6 4.41261 6 6.00391V42.0039C6 43.5952 6.63214 45.1213 7.75736 46.2465C8.88258 47.3718 10.4087 48.0039 12 48.0039H36C37.5913 48.0039 39.1174 47.3718 40.2426 46.2465C41.3679 45.1213 42 43.5952 42 42.0039V14.1249C41.9998 13.3293 41.6836 12.5664 41.121 12.0039L30 0.882906C29.4375 0.320258 28.6746 0.00407616 27.879 0.00390625V0.00390625ZM28.5 10.5039V4.50391L37.5 13.5039H31.5C30.7044 13.5039 29.9413 13.1878 29.3787 12.6252C28.8161 12.0626 28.5 11.2996 28.5 10.5039ZM25.5 22.5039V33.8829L28.938 30.4419C29.2197 30.1602 29.6017 30.002 30 30.002C30.3983 30.002 30.7803 30.1602 31.062 30.4419C31.3437 30.7236 31.5019 31.1056 31.5019 31.5039C31.5019 31.9022 31.3437 32.2842 31.062 32.5659L25.062 38.5659C24.9227 38.7056 24.7571 38.8164 24.5749 38.892C24.3927 38.9677 24.1973 39.0066 24 39.0066C23.8027 39.0066 23.6073 38.9677 23.4251 38.892C23.2429 38.8164 23.0773 38.7056 22.938 38.5659L16.938 32.5659C16.6563 32.2842 16.4981 31.9022 16.4981 31.5039C16.4981 31.1056 16.6563 30.7236 16.938 30.4419C17.2197 30.1602 17.6017 30.002 18 30.002C18.3983 30.002 18.7803 30.1602 19.062 30.4419L22.5 33.8829V22.5039C22.5 22.1061 22.658 21.7246 22.9393 21.4432C23.2206 21.1619 23.6022 21.0039 24 21.0039C24.3978 21.0039 24.7794 21.1619 25.0607 21.4432C25.342 21.7246 25.5 22.1061 25.5 22.5039V22.5039Z" fill="#053662"/>
</svg>