<svg width="48" height="48" viewBox="0 0 48 48" fill="none" xmlns="http://www.w3.org/2000/svg">
    <path d="M9.3 33.6028C9.43972 33.4165 9.6209 33.2653 9.82918 33.1612C10.0375 33.057 10.2671 33.0028 10.5 33.0028H18C18.3978 33.0028 18.7794 33.1608 19.0607 33.4421C19.342 33.7234 19.5 34.105 19.5 34.5028C19.5 34.9006 19.342 35.2822 19.0607 35.5635C18.7794 35.8448 18.3978 36.0028 18 36.0028H11.25L4.5 45.0028H43.5L36.75 36.0028H30C29.6022 36.0028 29.2206 35.8448 28.9393 35.5635C28.658 35.2822 28.5 34.9006 28.5 34.5028C28.5 34.105 28.658 33.7234 28.9393 33.4421C29.2206 33.1608 29.6022 33.0028 30 33.0028H37.5C37.7329 33.0028 37.9625 33.057 38.1708 33.1612C38.3791 33.2653 38.5603 33.4165 38.7 33.6028L47.7 45.6028C47.8671 45.8256 47.9689 46.0906 47.9939 46.3681C48.019 46.6455 47.9662 46.9245 47.8416 47.1736C47.7171 47.4228 47.5256 47.6323 47.2886 47.7788C47.0516 47.9252 46.7786 48.0028 46.5 48.0028H1.5C1.22143 48.0028 0.948368 47.9252 0.711404 47.7788C0.47444 47.6323 0.282939 47.4228 0.15836 47.1736C0.0337806 46.9245 -0.0189552 46.6455 0.00606174 46.3681C0.0310787 46.0906 0.13286 45.8256 0.300001 45.6028L9.3 33.6028Z" fill="#053662"/>
    <path d="M12 12.0028C12.0002 9.69347 12.6668 7.43326 13.9197 5.49337C15.1726 3.55348 16.9586 2.01631 19.0635 1.06631C21.1684 0.116319 23.5027 -0.206149 25.7863 0.137604C28.0699 0.481358 30.2058 1.47673 31.9377 3.00428C33.6696 4.53184 34.924 6.52668 35.5503 8.74946C36.1766 10.9722 36.1482 13.3285 35.4685 15.5356C34.7889 17.7426 33.4869 19.7067 31.7187 21.1921C29.9505 22.6775 27.7912 23.6211 25.5 23.9098V40.5028C25.5 40.9006 25.342 41.2822 25.0607 41.5635C24.7794 41.8448 24.3978 42.0028 24 42.0028C23.6022 42.0028 23.2206 41.8448 22.9393 41.5635C22.658 41.2822 22.5 40.9006 22.5 40.5028V23.9128C19.5989 23.5473 16.9311 22.1351 14.9976 19.9415C13.0642 17.7479 11.9983 14.9268 12 12.0028Z" fill="#053662"/>
</svg>
