<svg width="65" height="68" viewBox="0 0 65 68" fill="none" xmlns="http://www.w3.org/2000/svg">
<g id="Group 1200">
<path id="Vector 76" d="M59.1119 2.41344C42.1566 4.97844 31.4966 19.0842 28.1721 26.1698C23.5148 36.1293 19.5119 54.7479 40.7587 49.5469C60.6393 44.6803 63.4201 19.3303 62.2226 4.90926C62.0913 3.32733 60.6814 2.17601 59.1119 2.41344Z" fill="#D8EAFD" stroke="#255A90" stroke-width="4" stroke-linecap="round"/>
<path id="Vector 77" d="M36.5938 40.3469C36.5938 32.0576 41.4269 25.8408 55.242 10.4717" stroke="#255A90" stroke-width="4" stroke-linecap="round"/>
<path id="Vector 78" d="M33.158 59.9778C5.69972 61.3343 0.912644 35.2388 2.22625 18.123C2.3888 16.005 4.73316 14.853 6.67728 15.709C22.7822 22.8003 50.5219 26.1562 35.6106 58.301C35.1692 59.2525 34.2056 59.9261 33.158 59.9778Z" fill="#91C4FA" stroke="#255A90" stroke-width="4" stroke-linecap="round"/>
<path id="Vector 79" d="M11.2031 25.1499C18.4593 37.2382 29.3387 39.6559 36.6103 65.8693" stroke="#255A90" stroke-width="4" stroke-linecap="round"/>
</g>
</svg>
