<svg width="50" height="66" viewBox="0 0 50 66" fill="none" xmlns="http://www.w3.org/2000/svg">
<g clip-path="url(#clip0_2358_12148)">
<path d="M24.4401 65.2869C32.4863 65.2869 39.009 62.059 39.009 58.0771C39.009 54.0953 32.4863 50.8674 24.4401 50.8674C16.3938 50.8674 9.87109 54.0953 9.87109 58.0771C9.87109 62.059 16.3938 65.2869 24.4401 65.2869Z" fill="url(#paint0_radial_2358_12148)"/>
<g filter="url(#filter0_dd_2358_12148)">
<path d="M46.959 23.6764C46.959 32.6439 35.979 45.411 27.0324 57.4857C25.8449 59.0957 24.1532 59.0957 22.9657 57.4857C14.019 45.411 3.03906 32.8854 3.03906 23.6764C3.03906 11.6661 12.8641 1.94189 24.999 1.94189C37.1339 1.94189 46.959 11.6661 46.959 23.6764Z" fill="#053662"/>
</g>
<path d="M22.564 57.7834L22.5643 57.7839C23.2373 58.6897 24.0922 59.2104 25.014 59.2053C25.9343 59.2001 26.779 58.6714 27.4346 57.7827C28.8305 55.8988 30.2802 53.9926 31.732 52.0836C34.9148 47.8985 38.1081 43.6998 40.7673 39.6923C42.7067 36.7696 44.3757 33.9293 45.5609 31.2463C46.7446 28.5668 47.459 26.0151 47.459 23.6764C47.459 11.3851 37.4052 1.44189 24.999 1.44189C12.5928 1.44189 2.53906 11.3851 2.53906 23.6764C2.53906 28.4467 5.3689 33.9932 9.23143 39.7839C11.8158 43.6583 14.9062 47.7022 18.0002 51.7508C19.5413 53.7673 21.0832 55.7849 22.564 57.7834ZM38.7637 38.2809L38.7632 38.2817L25.7148 56.5358L25.3145 56.2362C25.3143 56.2365 25.3141 56.2368 25.3139 56.237C25.1938 56.3974 25.0906 56.5272 24.999 56.6371C24.9074 56.5272 24.8041 56.3973 24.684 56.2368C23.8634 55.1325 23.0385 54.0267 22.2147 52.9224C18.4937 47.9344 14.7948 42.9761 11.618 38.3191L11.6174 38.3183C9.67491 35.4825 8.05718 32.7638 6.92659 30.2738C5.79318 27.7777 5.16573 25.5466 5.16573 23.6764C5.16573 12.8165 14.0138 4.05186 24.999 4.05186C35.9843 4.05186 44.8323 12.8165 44.8323 23.6764C44.8323 25.5125 44.2501 27.7273 43.1887 30.2181C42.13 32.7029 40.6086 35.4299 38.7637 38.2809Z" fill="white" stroke="white"/>
<path d="M24.9987 30.5109C28.8122 30.5109 31.9036 27.4512 31.9036 23.6768C31.9036 19.9025 28.8122 16.8428 24.9987 16.8428C21.1852 16.8428 18.0938 19.9025 18.0938 23.6768C18.0938 27.4512 21.1852 30.5109 24.9987 30.5109Z" fill="#F2F2F2"/>
</g>
<defs>
<filter id="filter0_dd_2358_12148" x="-4.16094" y="-2.05811" width="58.3199" height="71.1513" filterUnits="userSpaceOnUse" color-interpolation-filters="sRGB">
<feFlood flood-opacity="0" result="BackgroundImageFix"/>
<feColorMatrix in="SourceAlpha" type="matrix" values="0 0 0 0 0 0 0 0 0 0 0 0 0 0 0 0 0 0 127 0" result="hardAlpha"/>
<feOffset dy="3.2"/>
<feGaussianBlur stdDeviation="3.6"/>
<feComposite in2="hardAlpha" operator="out"/>
<feColorMatrix type="matrix" values="0 0 0 0 0 0 0 0 0 0 0 0 0 0 0 0 0 0 0.13 0"/>
<feBlend mode="normal" in2="BackgroundImageFix" result="effect1_dropShadow_2358_12148"/>
<feColorMatrix in="SourceAlpha" type="matrix" values="0 0 0 0 0 0 0 0 0 0 0 0 0 0 0 0 0 0 127 0" result="hardAlpha"/>
<feOffset dy="0.6"/>
<feGaussianBlur stdDeviation="0.9"/>
<feComposite in2="hardAlpha" operator="out"/>
<feColorMatrix type="matrix" values="0 0 0 0 0 0 0 0 0 0 0 0 0 0 0 0 0 0 0.1 0"/>
<feBlend mode="normal" in2="effect1_dropShadow_2358_12148" result="effect2_dropShadow_2358_12148"/>
<feBlend mode="normal" in="SourceGraphic" in2="effect2_dropShadow_2358_12148" result="shape"/>
</filter>
<radialGradient id="paint0_radial_2358_12148" cx="0" cy="0" r="1" gradientUnits="userSpaceOnUse" gradientTransform="translate(24.4401 58.0771) scale(14.569 7.20971)">
<stop offset="0.1" stop-opacity="0.4"/>
<stop offset="1" stop-opacity="0.05"/>
</radialGradient>
<clipPath id="clip0_2358_12148">
<rect width="50" height="65" fill="white" transform="translate(0 0.65625)"/>
</clipPath>
</defs>
</svg>
