<svg width="85" height="70" viewBox="0 0 85 70" fill="none" xmlns="http://www.w3.org/2000/svg">
<g id="Group 1196">
<path id="Vector 71" d="M45.1188 55.5254V48.1309C45.1188 35.9806 35.2691 26.1309 23.1188 26.1309H21.3788L13.1875 26.1309C11.5306 26.1309 10.1875 27.474 10.1875 29.1309V35.3602" stroke="#255A90" stroke-width="4"/>
<path id="Vector 70" d="M63.2022 5.03784C63.756 4.08211 63.4302 2.85843 62.4744 2.30466C61.5187 1.75089 60.295 2.07674 59.7413 3.03247L63.2022 5.03784ZM58.5547 28.756V14.4028H54.5547V28.756H58.5547ZM59.2284 11.8961L63.2022 5.03784L59.7413 3.03247L55.7674 9.89071L59.2284 11.8961ZM58.5547 14.4028C58.5547 13.5225 58.7871 12.6578 59.2284 11.8961L55.7674 9.89071C54.973 11.2618 54.5547 12.8182 54.5547 14.4028H58.5547Z" fill="#255A90"/>
<circle id="Ellipse 150" cx="20.7617" cy="49.8877" r="17.8086" fill="#D8EAFD" stroke="#255A90" stroke-width="4"/>
<circle id="Ellipse 152" cx="20.7644" cy="49.8877" r="3.655" fill="#91C4FA"/>
<circle id="Ellipse 151" cx="70.5703" cy="55.6338" r="12.0625" fill="#D8EAFD" stroke="#255A90" stroke-width="4"/>
<circle id="Ellipse 153" cx="70.5691" cy="55.6338" r="3.655" fill="#91C4FA"/>
<path id="Vector 68" d="M37.4922 54.6641H57.9062" stroke="#255A90" stroke-width="4"/>
<path id="Vector 69" d="M23.0781 26.1328L68.6183 29.3767C72.2821 29.6376 75.121 32.686 75.121 36.359V44.704" stroke="#255A90" stroke-width="4"/>
<path id="Vector 72" d="M16.6875 2.55176H49.4922" stroke="#255A90" stroke-width="4" stroke-linecap="round"/>
<path id="Vector 73" d="M21.2266 4.03516V25.8147" stroke="#255A90" stroke-width="4" stroke-linecap="round"/>
<path id="Vector 74" d="M31.0469 4.03516V25.8147" stroke="#255A90" stroke-width="4" stroke-linecap="round"/>
<path id="Vector 75" d="M45.1172 4.03516L47.2679 26.0923" stroke="#255A90" stroke-width="4" stroke-linecap="round"/>
</g>
</svg>
