<svg width="53" height="65" viewBox="0 0 53 65" fill="none" xmlns="http://www.w3.org/2000/svg">
<g id="Group 1198">
<path id="Vector" d="M28.2452 3.52158L28.2452 3.52156C27.7976 2.80536 27.0553 2.50925 26.3695 2.53947C25.684 2.50954 24.9421 2.80572 24.4947 3.52171C20.8058 9.42506 14.2245 18.5036 9.38488 24.1558C5.16916 28.2489 2.55469 33.8682 2.55469 40.1107C2.55469 52.7721 13.31 62.8694 26.3664 62.8694C39.4229 62.8694 50.1782 52.7721 50.1782 40.1107C50.1782 33.8951 47.5862 28.2974 43.4025 24.2089C38.558 18.5605 31.9461 9.44346 28.2452 3.52158Z" stroke="#1E5189" stroke-width="4"/>
<path id="Vector 81" d="M29.9922 51.8608C33.2751 50.3735 39.8415 45.7256 39.8438 39.0322" stroke="#91C4FA" stroke-width="4" stroke-linecap="round"/>
</g>
</svg>
