<svg width="20" height="20" viewBox="0 0 20 20" fill="none" xmlns="http://www.w3.org/2000/svg">
    <path d="M1 0H7C7.27 0 7.52 0.11 7.71 0.29C7.89 0.48 8 0.73 8 1C8 1.27 7.89 1.52 7.71 1.71C7.52 1.89 7.27 2 7 2H3.41L18 16.59V13C18 12.73 18.11 12.48 18.29 12.29C18.48 12.11 18.73 12 19 12C19.27 12 19.52 12.11 19.71 12.29C19.89 12.48 20 12.73 20 13V19C20 19.27 19.89 19.52 19.71 19.71C19.52 19.89 19.27 20 19 20H13C12.73 20 12.48 19.89 12.29 19.71C12.11 19.52 12 19.27 12 19C12 18.73 12.11 18.48 12.29 18.29C12.48 18.11 12.73 18 13 18H16.59L2 3.41V7C2 7.27 1.89 7.52 1.71 7.71C1.52 7.89 1.27 8 1 8C0.73 8 0.48 7.89 0.29 7.71C0.11 7.52 0 7.27 0 7V1C0 0.73 0.11 0.48 0.29 0.29C0.48 0.11 0.73 0 1 0Z" fill="currentColor" />
</svg>